<?xml version="1.0" encoding="utf-8"?>
<!-- Generator: Adobe Illustrator 21.1.0, SVG Export Plug-In . SVG Version: 6.00 Build 0)  -->
<svg version="1.1" id="Layer_1" xmlns="http://www.w3.org/2000/svg" xmlns:xlink="http://www.w3.org/1999/xlink" x="0px" y="0px"
	 viewBox="0 0 1280 1024" style="enable-background:new 0 0 1280 1024;" xml:space="preserve">
<style type="text/css">
	.st0{fill:none;stroke:#FFCC66;stroke-width:2;stroke-miterlimit:10;}
</style>
<path class="st0" d="M310.5,403.5v-14.8H328h2.2l-1.5-2.8l-8.4-5.2c0,0-4.9-4.5-3.9-10.2c0,0-0.5-8.8,12-13.2H357v15h-19l1.2,2.2
	l7.8,5.9l3.2,3.6c0,0,2.2,4,2,7c0,0,0.2,8.2-11.2,12.5H310.5z"/>
<polygon class="st0" points="360.2,357.2 378.2,357.2 382,370.5 386.2,357.2 406.2,357.2 410.2,370.5 414.5,357.2 433,357.2 
	420.8,403.5 400.5,403.5 396.6,391 393,403.5 372.8,403.5 "/>
<polygon class="st0" points="426.2,403.5 438.5,357.2 467.2,357.2 479.2,403.5 461,403.5 458.8,398.8 446.5,398.5 445,403.5 "/>
<polygon class="st0" points="447.2,387 452.8,370 457.5,387 "/>
<path class="st0" d="M480.8,357.2h36.8c0,0,12.5,1,13.8,16c0,0,1.5,11-13,16h-18.5v14.2h-18L480.8,357.2z"/>
<path class="st0" d="M498.2,368.8v9.8h13c0,0,4.2-1.8,3.8-6c0,0,0.8-3.5-3.8-3.8H498.2z"/>
<rect x="534" y="357.2" class="st0" width="17.5" height="46.2"/>
<polygon class="st0" points="450,415.5 472.2,415.5 479.2,424.8 486.5,415.5 510.2,415.5 491.5,439.2 510.2,463.2 486.5,463.2 
	479.2,454.5 472.5,463.2 448.8,463.2 467.8,440.5 "/>
<path class="st0" d="M353,415.5v47.8h37.5c0,0,13.2-4.5,12.8-14.8s-6-10.2-6.6-10.5s-0.6-0.2-0.6-0.2s4.8-2.5,4.5-9
	s-8.2-13.2-12.2-13.2H353z"/>
<path class="st0" d="M369,426.5v8.8h13.5c0,0,3.5-1,3.2-4.4s-3.2-4.4-3.2-4.4H369z"/>
<path class="st0" d="M369,443.5v8.8h13.5c0,0,3.5-1,3.2-4.4s-3.2-4.4-3.2-4.4H369z"/>
<circle class="st0" cx="431.5" cy="439.4" r="9.6"/>
<circle class="st0" cx="431.5" cy="440.1" r="24.6"/>
</svg>
